<?xml version="1.0"?>
<svg xmlns="http://www.w3.org/2000/svg" xmlns:xlink="http://www.w3.org/1999/xlink" version="1.1" id="Layer_1" x="0px" y="0px" viewBox="0 0 512 512" style="enable-background:new 0 0 512 512;" xml:space="preserve" width="512px" height="512px" class=""><g transform="matrix(0.9999 0 0 0.9999 0.0256 0.0256)"><path style="fill:#11FF00" d="M376.202,203.509c0.727-0.384,1.502-0.496,2.268-0.664c14.007-6.115,27.918-11.242,39.68-15.572  c10.816-3.982,23.807-8.763,29.649-12.061c-4.002-3.924-13.215-9.617-25.847-15.253l-45.442,13.428  c-0.851,0.254-1.702,0.369-2.544,0.369c-3.886,0-7.456-2.526-8.614-6.439c-1.404-4.754,1.307-9.755,6.07-11.158l22.18-6.554  c-11.629-3.407-24.417-6.203-37.794-7.709c-48.518-5.456-77.105,5.868-107.377,17.877c-28.623,11.351-58.219,23.123-103.903,18.974  c-41.912-3.798-73.895,4.974-95.544,14.816c28.386-1.684,65.851,0.956,96.728,20.176c46.991,29.246,53.746,89.368,54.553,112.649  h89.474c5.211-23.079,24.675-92.403,74.456-116.939c3.609-1.778,7.27-3.424,10.924-5.061  C375.495,204.106,375.771,203.734,376.202,203.509z" data-original="#73C9C9" class="" data-old_color="#00FF59"/><g>
	<path style="fill:#00FF70" d="M80.842,245.754c-34.667,0-62.877,28.211-62.877,62.877s28.211,62.877,62.877,62.877   s62.877-28.211,62.877-62.877S115.509,245.754,80.842,245.754z" data-original="#D8D8D8" class="" data-old_color="#00FF77"/>
	<path style="fill:#00FF70" d="M431.158,245.754c-7.314,0-14.31,1.32-20.845,3.628l28.802,55.092   c2.298,4.395,0.605,9.816-3.798,12.114c-1.324,0.702-2.746,1.026-4.149,1.026c-3.237,0-6.368-1.754-7.965-4.824l-28.791-55.071   c-15.795,11.434-26.13,29.97-26.13,50.913c0,34.667,28.211,62.877,62.877,62.877s62.877-28.211,62.877-62.877   S465.825,245.754,431.158,245.754z" data-original="#D8D8D8" class="" data-old_color="#00FF77"/>
</g><g>
	<path style="fill:#0FB60F" d="M80.842,227.79C36.263,227.79,0,264.053,0,308.632s36.263,80.842,80.842,80.842   s80.842-36.263,80.842-80.842S125.421,227.79,80.842,227.79z M80.842,371.509c-34.667,0-62.877-28.211-62.877-62.877   s28.211-62.877,62.877-62.877s62.877,28.211,62.877,62.877S115.509,371.509,80.842,371.509z" data-original="#314E55" class="active-path" data-old_color="#10B610"/>
	<path style="fill:#0FB60F" d="M431.158,227.79c-10.316,0-20.151,2.015-29.231,5.553l-8.936-17.094   c11.063-4.582,21.934-8.647,31.36-12.117c28.842-10.614,43.316-15.939,43.167-27.904c-0.146-11.136-16.481-23.247-38.975-33.12   c-1.27-0.945-2.689-1.663-4.288-1.836c-20.111-8.289-44.373-14.748-66.43-17.237c-52.974-5.939-85.026,6.746-116.018,19.035   c-27.895,11.07-54.167,21.526-95.667,17.781c-93.246-8.324-141.43,39.307-143.439,41.342c-2.842,2.886-3.403,7.316-1.368,10.825   c2.026,3.482,6.167,5.193,10.07,4.167c0.746-0.211,74.719-19.377,124.816,11.798c48.763,30.36,46.158,105.237,46.123,105.991   c-0.105,2.447,0.798,4.833,2.491,6.605c1.693,1.763,4.035,2.772,6.482,2.772h105.746c4.368,0,8.097-3.14,8.851-7.439   c0.149-0.868,15.632-86.412,66.228-111.351c1.445-0.712,2.934-1.345,4.395-2.035l9.455,18.086   c-21.509,14.541-35.675,39.156-35.675,67.019c0,44.579,36.263,80.842,80.842,80.842S512,353.211,512,308.632   S475.737,227.79,431.158,227.79z M289.737,326.386h-89.474c-0.807-23.281-7.561-83.403-54.553-112.649   c-30.877-19.219-68.342-21.86-96.728-20.175c21.649-9.842,53.632-18.614,95.544-14.816c45.684,4.149,75.281-7.623,103.903-18.974   c30.272-12.009,58.86-23.333,107.377-17.877c13.377,1.506,26.165,4.302,37.794,7.709l-22.18,6.554   c-4.763,1.404-7.474,6.404-6.07,11.158c1.158,3.912,4.728,6.439,8.614,6.439c0.842,0,1.693-0.114,2.544-0.368l45.442-13.428   c12.632,5.636,21.845,11.329,25.847,15.253c-5.842,3.298-18.833,8.079-29.649,12.061c-11.762,4.331-25.673,9.457-39.68,15.572   c-0.765,0.169-1.54,0.281-2.268,0.664c-0.43,0.225-0.707,0.597-1.084,0.877c-3.654,1.637-7.315,3.284-10.924,5.061   C314.412,233.982,294.947,303.307,289.737,326.386z M431.158,371.509c-34.667,0-62.877-28.211-62.877-62.877   c0-20.942,10.335-39.479,26.13-50.913l28.791,55.071c1.596,3.07,4.728,4.824,7.965,4.824c1.404,0,2.825-0.324,4.149-1.026   c4.403-2.298,6.096-7.719,3.798-12.114l-28.802-55.092c6.535-2.308,13.531-3.628,20.845-3.628   c34.667,0,62.877,28.211,62.877,62.877S465.825,371.509,431.158,371.509z" data-original="#314E55" class="active-path" data-old_color="#10B610"/>
</g></g> </svg>
